<svg xmlns="http://www.w3.org/2000/svg" width="1200" height="630" viewBox="0 0 1200 630" role="img" aria-labelledby="title desc">
  <title id="title">Synapse disable room encryption cover</title>
  <desc id="desc">A Matrix Synapse server policy diagram showing encrypted room creation blocked at the server edge.</desc>
  <defs>
    <linearGradient id="bg" x1="0" y1="0" x2="1" y2="1">
      <stop offset="0%" stop-color="#10253d"/>
      <stop offset="48%" stop-color="#17495f"/>
      <stop offset="100%" stop-color="#f2b84b"/>
    </linearGradient>
    <filter id="shadow" x="-20%" y="-20%" width="140%" height="140%">
      <feDropShadow dx="0" dy="18" stdDeviation="18" flood-color="#071521" flood-opacity="0.28"/>
    </filter>
  </defs>
  <rect width="1200" height="630" fill="url(#bg)"/>
  <path d="M0 492 C170 430 252 552 430 498 C594 448 692 358 858 398 C1010 435 1078 512 1200 462 L1200 630 L0 630 Z" fill="#fff4d8" opacity="0.16"/>
  <g transform="translate(110 96)" filter="url(#shadow)">
    <rect x="0" y="0" width="420" height="438" rx="18" fill="#f8fbff"/>
    <rect x="34" y="42" width="352" height="58" rx="10" fill="#e9f1f8"/>
    <circle cx="72" cy="71" r="16" fill="#22a06b"/>
    <rect x="104" y="59" width="202" height="12" rx="6" fill="#406579"/>
    <rect x="104" y="80" width="128" height="9" rx="4.5" fill="#89a3b3"/>
    <rect x="34" y="130" width="352" height="58" rx="10" fill="#e9f1f8"/>
    <circle cx="72" cy="159" r="16" fill="#22a06b"/>
    <rect x="104" y="147" width="188" height="12" rx="6" fill="#406579"/>
    <rect x="104" y="168" width="156" height="9" rx="4.5" fill="#89a3b3"/>
    <rect x="34" y="218" width="352" height="86" rx="12" fill="#ffe2de"/>
    <circle cx="72" cy="260" r="18" fill="#d64545"/>
    <path d="M64 260 L80 260 M72 252 L72 268" stroke="#fff" stroke-width="7" stroke-linecap="round"/>
    <rect x="112" y="241" width="202" height="13" rx="6.5" fill="#8c3030"/>
    <rect x="112" y="266" width="156" height="10" rx="5" fill="#c96e64"/>
    <rect x="34" y="338" width="148" height="46" rx="10" fill="#17495f"/>
    <rect x="202" y="338" width="184" height="46" rx="10" fill="#f2b84b"/>
  </g>
  <g transform="translate(668 128)">
    <rect x="0" y="0" width="310" height="286" rx="28" fill="#f8fbff" filter="url(#shadow)"/>
    <path d="M84 128 V82 C84 44 112 20 155 20 C198 20 226 44 226 82 V128" fill="none" stroke="#17495f" stroke-width="28" stroke-linecap="round"/>
    <rect x="62" y="126" width="186" height="124" rx="20" fill="#17495f"/>
    <circle cx="155" cy="181" r="19" fill="#f2b84b"/>
    <rect x="147" y="198" width="16" height="30" rx="8" fill="#f2b84b"/>
    <path d="M42 38 L268 264" stroke="#d64545" stroke-width="24" stroke-linecap="round"/>
  </g>
  <g transform="translate(620 470)">
    <rect x="0" y="0" width="426" height="62" rx="14" fill="#082033" opacity="0.78"/>
    <circle cx="34" cy="31" r="10" fill="#22a06b"/>
    <text x="58" y="39" font-family="ui-monospace, SFMono-Regular, Menlo, Consolas, monospace" font-size="24" fill="#f8fbff">m.room.encryption -> 403</text>
  </g>
  <text x="110" y="566" font-family="Inter, Arial, sans-serif" font-size="28" font-weight="700" fill="#f8fbff">Matrix Synapse</text>
  <text x="110" y="600" font-family="Inter, Arial, sans-serif" font-size="20" fill="#f8fbff" opacity="0.86">Server-side room encryption gate</text>
</svg>
