<svg xmlns="http://www.w3.org/2000/svg" width="1280" height="720" viewBox="0 0 1280 720" role="img" aria-labelledby="title desc">
  <title id="title">Telegram bot for SMS</title>
  <desc id="desc">Telegram bot token and SMS bridge cover.</desc>
  <rect width="1280" height="720" fill="#082f49"/>
  <circle cx="1030" cy="170" r="180" fill="#0ea5e9" opacity="0.28"/>
  <circle cx="230" cy="560" r="220" fill="#22c55e" opacity="0.18"/>
  <g font-family="Inter, Arial, sans-serif">
    <text x="92" y="140" fill="#f8fafc" font-size="52" font-weight="700">Telegram Bot 短信桥接</text>
    <text x="96" y="188" fill="#bae6fd" font-size="26">BotFather - Token - chat_id - SMS Commands</text>
  </g>
  <g transform="translate(160 276)">
    <rect width="280" height="220" rx="24" fill="#0f172a" stroke="#38bdf8" stroke-width="4"/>
    <path d="M78 108 L214 54 L166 176 L136 126 Z" fill="#e0f2fe"/>
    <text x="140" y="262" fill="#f8fafc" font-family="Inter, Arial, sans-serif" font-size="26" font-weight="700" text-anchor="middle">Telegram</text>
  </g>
  <g transform="translate(520 276)" font-family="Inter, Arial, sans-serif" text-anchor="middle">
    <rect width="240" height="220" rx="18" fill="#111827" stroke="#facc15" stroke-width="4"/>
    <text x="120" y="88" fill="#fef3c7" font-size="30" font-weight="700">TOKEN</text>
    <path d="M68 124 H172 M68 156 H172" stroke="#fde68a" stroke-width="9" stroke-linecap="round"/>
    <text x="120" y="262" fill="#f8fafc" font-size="26" font-weight="700">权限边界</text>
  </g>
  <g transform="translate(840 276)" font-family="Inter, Arial, sans-serif" text-anchor="middle">
    <rect width="280" height="220" rx="24" fill="#052e16" stroke="#34d399" stroke-width="4"/>
    <path d="M76 78 H204 V150 H126 L94 182 V150 H76 Z" fill="#bbf7d0"/>
    <text x="140" y="262" fill="#f8fafc" font-size="26" font-weight="700">短信通知</text>
  </g>
</svg>
