<svg xmlns="http://www.w3.org/2000/svg" width="1200" height="630" viewBox="0 0 1200 630" role="img" aria-label="Matrix Synapse media store cleanup cover">
  <defs>
    <linearGradient id="bg" x1="0" y1="0" x2="1" y2="1">
      <stop offset="0" stop-color="#102a43"/>
      <stop offset="0.55" stop-color="#1f4e5f"/>
      <stop offset="1" stop-color="#2d6a4f"/>
    </linearGradient>
    <filter id="shadow" x="-20%" y="-20%" width="140%" height="140%">
      <feDropShadow dx="0" dy="18" stdDeviation="18" flood-color="#071421" flood-opacity="0.35"/>
    </filter>
  </defs>
  <rect width="1200" height="630" fill="url(#bg)"/>
  <g opacity="0.16" fill="none" stroke="#d8f3dc" stroke-width="2">
    <path d="M0 120h1200M0 250h1200M0 380h1200M0 510h1200"/>
    <path d="M180 0v630M420 0v630M660 0v630M900 0v630"/>
  </g>
  <g filter="url(#shadow)">
    <rect x="90" y="92" width="1020" height="446" rx="24" fill="#f7fff7"/>
    <rect x="126" y="128" width="410" height="374" rx="16" fill="#e9f5db"/>
    <rect x="574" y="128" width="500" height="374" rx="16" fill="#d8f3dc"/>
  </g>
  <g transform="translate(150 168)">
    <text x="0" y="0" font-family="Inter, Arial, sans-serif" font-size="42" font-weight="800" fill="#102a43">Synapse media_store</text>
    <text x="0" y="54" font-family="Inter, Arial, sans-serif" font-size="25" font-weight="700" fill="#52796f">限制上传 / 自动保留 / Admin API</text>
    <g transform="translate(0 105)">
      <rect width="310" height="38" rx="8" fill="#ffffff"/>
      <rect y="60" width="250" height="38" rx="8" fill="#ffffff"/>
      <rect y="120" width="360" height="38" rx="8" fill="#ffffff"/>
      <text x="18" y="27" font-family="JetBrains Mono, Menlo, monospace" font-size="20" fill="#31572c">max_upload_size</text>
      <text x="18" y="87" font-family="JetBrains Mono, Menlo, monospace" font-size="20" fill="#31572c">media_retention</text>
      <text x="18" y="147" font-family="JetBrains Mono, Menlo, monospace" font-size="20" fill="#31572c">/_synapse/admin/v1/media/delete</text>
    </g>
  </g>
  <g transform="translate(635 174)">
    <rect x="42" y="20" width="300" height="250" rx="20" fill="#ffffff"/>
    <rect x="76" y="56" width="232" height="28" rx="6" fill="#95d5b2"/>
    <rect x="76" y="104" width="232" height="28" rx="6" fill="#74c69d"/>
    <rect x="76" y="152" width="232" height="28" rx="6" fill="#52b788"/>
    <rect x="76" y="200" width="168" height="28" rx="6" fill="#40916c"/>
    <path d="M390 236c-34 56-95 92-165 92-69 0-130-36-164-91" fill="none" stroke="#1b4332" stroke-width="18" stroke-linecap="round"/>
    <path d="M356 229h58v58" fill="none" stroke="#1b4332" stroke-width="18" stroke-linecap="round" stroke-linejoin="round"/>
    <text x="34" y="365" font-family="Inter, Arial, sans-serif" font-size="31" font-weight="800" fill="#1b4332">清理大文件，保留可排障性</text>
  </g>
</svg>
