<svg xmlns="http://www.w3.org/2000/svg" width="1280" height="720" viewBox="0 0 1280 720">
  <defs>
    <linearGradient id="bg" x1="0" y1="0" x2="1" y2="1">
      <stop offset="0" stop-color="#14151a"/>
      <stop offset="0.48" stop-color="#7b1f2a"/>
      <stop offset="1" stop-color="#d9a441"/>
    </linearGradient>
    <filter id="shadow" x="-20%" y="-20%" width="140%" height="140%">
      <feDropShadow dx="0" dy="14" stdDeviation="18" flood-color="#000" flood-opacity="0.35"/>
    </filter>
  </defs>
  <rect width="1280" height="720" fill="url(#bg)"/>
  <g opacity="0.16" stroke="#fff" stroke-width="3" fill="none">
    <path d="M130 500h1020"/>
    <path d="M260 216h220v170H260zM530 216h220v170H530zM800 216h220v170H800z"/>
    <path d="M370 386v76h540v-76M640 462v70"/>
    <path d="M160 570c180-50 330-50 510 0s330 50 500 0"/>
  </g>
  <g filter="url(#shadow)">
    <rect x="92" y="86" width="338" height="84" rx="14" fill="#121318" stroke="#ffcc66"/>
    <text x="128" y="139" fill="#fff8e5" font-family="Menlo, monospace" font-size="31">FreeBSD 15</text>
  </g>
  <text x="92" y="400" fill="#ffffff" font-family="Arial, 'Noto Sans CJK SC', sans-serif" font-size="62" font-weight="700">Hysteria2 服务器端配置</text>
  <text x="96" y="468" fill="#ffe9b5" font-family="Menlo, monospace" font-size="28">rc.d / self-signed TLS / QUIC tuning</text>
</svg>
