<svg xmlns="http://www.w3.org/2000/svg" viewBox="0 0 1200 630" role="img" aria-labelledby="title desc">
  <title id="title">OpenClaw production Docker deployment</title>
  <desc id="desc">A production OpenClaw gateway protected behind Docker, SSH tunnel, firewall, backups, and security audit layers.</desc>
  <defs>
    <linearGradient id="bg" x1="0" y1="0" x2="1" y2="1">
      <stop offset="0" stop-color="#101820"/>
      <stop offset="0.48" stop-color="#17212b"/>
      <stop offset="1" stop-color="#253229"/>
    </linearGradient>
    <linearGradient id="panel" x1="0" y1="0" x2="1" y2="1">
      <stop offset="0" stop-color="#26323e"/>
      <stop offset="1" stop-color="#1b252c"/>
    </linearGradient>
    <linearGradient id="accent" x1="0" y1="0" x2="1" y2="0">
      <stop offset="0" stop-color="#2dd4bf"/>
      <stop offset="1" stop-color="#f59e0b"/>
    </linearGradient>
    <filter id="shadow" x="-20%" y="-20%" width="140%" height="140%">
      <feDropShadow dx="0" dy="18" stdDeviation="22" flood-color="#000" flood-opacity="0.35"/>
    </filter>
  </defs>

  <rect width="1200" height="630" fill="url(#bg)"/>
  <path d="M0 474 C180 414 320 520 490 456 C650 396 782 278 958 318 C1060 341 1130 402 1200 374 L1200 630 L0 630 Z" fill="#20362f" opacity="0.9"/>
  <path d="M0 552 C170 500 334 544 512 505 C710 462 850 378 1010 430 C1090 456 1150 505 1200 485 L1200 630 L0 630 Z" fill="#15251f" opacity="0.95"/>

  <g filter="url(#shadow)">
    <rect x="88" y="82" width="1024" height="466" rx="22" fill="url(#panel)" stroke="#42515d" stroke-width="2"/>
    <rect x="88" y="82" width="1024" height="58" rx="22" fill="#111a22"/>
    <circle cx="126" cy="111" r="8" fill="#ef4444"/>
    <circle cx="154" cy="111" r="8" fill="#f59e0b"/>
    <circle cx="182" cy="111" r="8" fill="#22c55e"/>
  </g>

  <g transform="translate(150 190)">
    <rect x="0" y="0" width="288" height="210" rx="16" fill="#0f1720" stroke="#334553" stroke-width="2"/>
    <rect x="28" y="30" width="232" height="42" rx="8" fill="#1e2935"/>
    <rect x="28" y="92" width="232" height="42" rx="8" fill="#1e2935"/>
    <rect x="28" y="154" width="232" height="28" rx="8" fill="#263544"/>
    <path d="M58 51 h52 M58 113 h118 M58 168 h146" stroke="#9fb3c1" stroke-width="8" stroke-linecap="round"/>
    <path d="M206 51 h25 M206 113 h25" stroke="#2dd4bf" stroke-width="8" stroke-linecap="round"/>
    <text x="28" y="-28" fill="#d7e2ea" font-family="ui-monospace, SFMono-Regular, Menlo, Consolas, monospace" font-size="28" letter-spacing="0">Docker Compose</text>
  </g>

  <g transform="translate(516 178)">
    <path d="M126 0 C185 0 232 47 232 106 C232 165 185 212 126 212 C67 212 20 165 20 106 C20 47 67 0 126 0 Z" fill="#111a22" stroke="#4b6070" stroke-width="3"/>
    <path d="M126 42 C161 42 190 71 190 106 C190 141 161 170 126 170 C91 170 62 141 62 106 C62 71 91 42 126 42 Z" fill="#24323d"/>
    <path d="M126 70 L160 93 L147 133 L105 133 L92 93 Z" fill="none" stroke="url(#accent)" stroke-width="10" stroke-linejoin="round"/>
    <circle cx="126" cy="106" r="11" fill="#f8fafc"/>
    <text x="126" y="266" text-anchor="middle" fill="#f8fafc" font-family="ui-sans-serif, system-ui, -apple-system, BlinkMacSystemFont, Segoe UI, sans-serif" font-size="42" font-weight="700" letter-spacing="0">OpenClaw</text>
    <text x="126" y="304" text-anchor="middle" fill="#9fb3c1" font-family="ui-monospace, SFMono-Regular, Menlo, Consolas, monospace" font-size="20" letter-spacing="0">Gateway :18789</text>
  </g>

  <g transform="translate(828 186)">
    <rect x="0" y="0" width="214" height="74" rx="14" fill="#10251f" stroke="#2dd4bf" stroke-width="2"/>
    <rect x="0" y="104" width="214" height="74" rx="14" fill="#2b2414" stroke="#f59e0b" stroke-width="2"/>
    <rect x="0" y="208" width="214" height="74" rx="14" fill="#172131" stroke="#60a5fa" stroke-width="2"/>
    <text x="28" y="46" fill="#d7fff8" font-family="ui-monospace, SFMono-Regular, Menlo, Consolas, monospace" font-size="24" letter-spacing="0">SSH Tunnel</text>
    <text x="28" y="150" fill="#ffe8bf" font-family="ui-monospace, SFMono-Regular, Menlo, Consolas, monospace" font-size="24" letter-spacing="0">Backups</text>
    <text x="28" y="254" fill="#dbeafe" font-family="ui-monospace, SFMono-Regular, Menlo, Consolas, monospace" font-size="24" letter-spacing="0">Audit</text>
  </g>

  <path d="M448 294 H520" stroke="#6b7d89" stroke-width="4" stroke-dasharray="10 10"/>
  <path d="M748 294 H814" stroke="#6b7d89" stroke-width="4" stroke-dasharray="10 10"/>

  <text x="120" y="500" fill="#f8fafc" font-family="ui-sans-serif, system-ui, -apple-system, BlinkMacSystemFont, Segoe UI, sans-serif" font-size="44" font-weight="700" letter-spacing="0">生产级安装路线</text>
  <text x="120" y="540" fill="#b7c8d4" font-family="ui-monospace, SFMono-Regular, Menlo, Consolas, monospace" font-size="22" letter-spacing="0">pin version · loopback ports · least privilege · recoverable state</text>
</svg>
