<svg xmlns="http://www.w3.org/2000/svg" viewBox="0 0 1200 630" width="1200" height="630">
  <defs>
    <linearGradient id="bg" x1="0" y1="0" x2="1" y2="1">
      <stop offset="0%" stop-color="#0f172a"/>
      <stop offset="100%" stop-color="#1e293b"/>
    </linearGradient>
    <linearGradient id="accent" x1="0" y1="0" x2="0" y2="1">
      <stop offset="0%" stop-color="#38bdf8"/>
      <stop offset="100%" stop-color="#818cf8"/>
    </linearGradient>
    <linearGradient id="arch1" x1="0" y1="0" x2="1" y2="0">
      <stop offset="0%" stop-color="#6366f1" stop-opacity="0.6"/>
      <stop offset="100%" stop-color="#6366f1" stop-opacity="0.05"/>
    </linearGradient>
    <linearGradient id="arch2" x1="0" y1="0" x2="1" y2="0">
      <stop offset="0%" stop-color="#06b6d4" stop-opacity="0.5"/>
      <stop offset="100%" stop-color="#06b6d4" stop-opacity="0.05"/>
    </linearGradient>
    <filter id="glow">
      <feGaussianBlur stdDeviation="3" result="blur"/>
      <feMerge><feMergeNode in="blur"/><feMergeNode in="SourceGraphic"/></feMerge>
    </filter>
    <filter id="glowWide">
      <feGaussianBlur stdDeviation="8" result="blur"/>
      <feMerge><feMergeNode in="blur"/><feMergeNode in="SourceGraphic"/></feMerge>
    </filter>
  </defs>
  <rect width="1200" height="630" fill="url(#bg)"/>
  <g stroke="#1e293b" stroke-width="0.5" opacity="0.4">
    <line x1="0" y1="105" x2="1200" y2="105"/>
    <line x1="0" y1="210" x2="1200" y2="210"/>
    <line x1="0" y1="315" x2="1200" y2="315"/>
    <line x1="0" y1="420" x2="1200" y2="420"/>
    <line x1="0" y1="525" x2="1200" y2="525"/>
    <line x1="200" y1="0" x2="200" y2="630"/>
    <line x1="400" y1="0" x2="400" y2="630"/>
    <line x1="600" y1="0" x2="600" y2="630"/>
    <line x1="800" y1="0" x2="800" y2="630"/>
    <line x1="1000" y1="0" x2="1000" y2="630"/>
  </g>
  <ellipse cx="600" cy="450" rx="360" ry="100" fill="none" stroke="url(#arch1)" stroke-width="90" opacity="0.3" filter="url(#glowWide)"/>
  <ellipse cx="600" cy="450" rx="300" ry="80" fill="none" stroke="url(#arch2)" stroke-width="60" opacity="0.25" filter="url(#glowWide)"/>
  <path d="M 120 450 Q 600 280 1080 450" fill="none" stroke="url(#accent)" stroke-width="4" filter="url(#glow)"/>
  <path d="M 140 450 Q 600 300 1060 450" fill="none" stroke="#38bdf8" stroke-width="1.5" opacity="0.4"/>
  <path d="M 100 450 Q 600 260 1100 450" fill="none" stroke="#818cf8" stroke-width="1" opacity="0.3"/>
  <rect x="120" y="390" width="8" height="230" rx="4" fill="#475569" opacity="0.8"/>
  <rect x="1072" y="390" width="8" height="230" rx="4" fill="#475569" opacity="0.8"/>
  <rect x="290" y="410" width="6" height="210" rx="3" fill="#475569" opacity="0.5"/>
  <rect x="904" y="410" width="6" height="210" rx="3" fill="#475569" opacity="0.5"/>
  <g transform="translate(120, 520)">
    <rect x="-60" y="-28" width="120" height="56" rx="12" fill="#1e293b" stroke="#38bdf8" stroke-width="2"/>
    <text x="0" y="6" text-anchor="middle" fill="#e2e8f0" font-family="SF Mono, monospace" font-size="14" font-weight="bold">Codex</text>
  </g>
  <g transform="translate(600, 520)">
    <rect x="-80" y="-28" width="160" height="56" rx="12" fill="#1e293b" stroke="#818cf8" stroke-width="2" filter="url(#glow)"/>
    <text x="0" y="6" text-anchor="middle" fill="#c4b5fd" font-family="SF Mono, monospace" font-size="14" font-weight="bold">Moon Bridge</text>
  </g>
  <g transform="translate(1080, 520)">
    <rect x="-60" y="-28" width="120" height="56" rx="12" fill="#1e293b" stroke="#10b981" stroke-width="2"/>
    <text x="0" y="6" text-anchor="middle" fill="#e2e8f0" font-family="SF Mono, monospace" font-size="14" font-weight="bold">DeepSeek</text>
  </g>
  <line x1="180" y1="520" x2="520" y2="520" stroke="#475569" stroke-width="1.5" stroke-dasharray="6,4"/>
  <line x1="680" y1="520" x2="1020" y2="520" stroke="#475569" stroke-width="1.5" stroke-dasharray="6,4"/>
  <text x="350" y="508" text-anchor="middle" fill="#64748b" font-family="SF Mono, monospace" font-size="11">Responses API</text>
  <text x="350" y="540" text-anchor="middle" fill="#64748b" font-family="SF Mono, monospace" font-size="10">/v1/responses</text>
  <text x="850" y="508" text-anchor="middle" fill="#64748b" font-family="SF Mono, monospace" font-size="11">Chat API</text>
  <text x="850" y="540" text-anchor="middle" fill="#64748b" font-family="SF Mono, monospace" font-size="10">/v1/chat/completions</text>
  <g transform="translate(600, 160)">
    <text x="0" y="0" text-anchor="middle" fill="#f1f5f9" font-family="SF Pro, -apple-system, sans-serif" font-size="36" font-weight="700" letter-spacing="0">Moon Bridge 配置教程</text>
    <text x="0" y="40" text-anchor="middle" fill="#94a3b8" font-family="SF Pro, -apple-system, sans-serif" font-size="18" letter-spacing="1">在 Codex 中使用 DeepSeek 模型</text>
  </g>
  <g transform="translate(600, 230)">
    <rect x="-220" y="-14" width="440" height="28" rx="14" fill="#334155" opacity="0.6"/>
    <text x="-175" y="5" text-anchor="middle" fill="#38bdf8" font-family="SF Mono, monospace" font-size="12">Responses API</text>
    <text x="-40" y="5" text-anchor="middle" fill="#818cf8" font-family="SF Mono, monospace" font-size="12">协议转换</text>
    <text x="80" y="5" text-anchor="middle" fill="#10b981" font-family="SF Mono, monospace" font-size="12">本地代理</text>
    <text x="190" y="5" text-anchor="middle" fill="#f472b6" font-family="SF Mono, monospace" font-size="12">38440</text>
  </g>
  <circle cx="540" cy="590" r="2" fill="#475569" opacity="0.5"/>
  <circle cx="560" cy="590" r="2" fill="#475569" opacity="0.5"/>
  <circle cx="580" cy="590" r="2" fill="#475569" opacity="0.5"/>
  <circle cx="600" cy="590" r="2" fill="#475569" opacity="0.6"/>
  <circle cx="620" cy="590" r="2" fill="#475569" opacity="0.5"/>
  <circle cx="640" cy="590" r="2" fill="#475569" opacity="0.5"/>
  <circle cx="660" cy="590" r="2" fill="#475569" opacity="0.5"/>
  <polygon points="560,470 570,465 565,475" fill="#38bdf8" opacity="0.3"/>
  <polygon points="640,470 630,465 635,475" fill="#38bdf8" opacity="0.3"/>
  <text x="600" y="475" text-anchor="middle" fill="#475569" font-family="SF Mono, monospace" font-size="10">请求 → 响应</text>
</svg>
