<svg xmlns="http://www.w3.org/2000/svg" width="1200" height="630" viewBox="0 0 1200 630" role="img" aria-labelledby="title desc">
  <title id="title">Matrix Element Call MusicBot Radio</title>
  <desc id="desc">A Docker based Matrix music bot streaming radio into Element Call.</desc>
  <defs>
    <linearGradient id="bg" x1="0" y1="0" x2="1" y2="1">
      <stop offset="0" stop-color="#10231f"/>
      <stop offset="0.52" stop-color="#203b46"/>
      <stop offset="1" stop-color="#352d45"/>
    </linearGradient>
    <linearGradient id="panel" x1="0" y1="0" x2="1" y2="1">
      <stop offset="0" stop-color="#f4f7f2"/>
      <stop offset="1" stop-color="#d9eadb"/>
    </linearGradient>
  </defs>
  <rect width="1200" height="630" fill="url(#bg)"/>
  <g opacity="0.22" fill="none" stroke="#f5f7f4" stroke-width="2">
    <path d="M125 130h950M125 500h950M170 95v440M1030 95v440"/>
    <circle cx="600" cy="315" r="225"/>
    <circle cx="600" cy="315" r="155"/>
  </g>
  <rect x="118" y="118" width="964" height="394" rx="28" fill="url(#panel)" opacity="0.96"/>
  <g transform="translate(178 176)">
    <rect x="0" y="0" width="170" height="170" rx="30" fill="#0dbd8b"/>
    <path d="M48 98c25-37 49-37 74 0" fill="none" stroke="#10231f" stroke-width="16" stroke-linecap="round"/>
    <circle cx="51" cy="55" r="16" fill="#10231f"/>
    <circle cx="119" cy="55" r="16" fill="#10231f"/>
    <path d="M85 116v38" stroke="#10231f" stroke-width="16" stroke-linecap="round"/>
  </g>
  <g transform="translate(410 158)">
    <text x="0" y="62" font-family="Inter, Arial, sans-serif" font-size="58" font-weight="800" fill="#10231f">Matrix MusicBot</text>
    <text x="0" y="122" font-family="Inter, Arial, sans-serif" font-size="34" font-weight="650" fill="#33534b">Docker 部署与 Element Call 电台播放</text>
    <g transform="translate(0 172)">
      <rect x="0" y="0" width="185" height="54" rx="12" fill="#10231f"/>
      <text x="24" y="36" font-family="Inter, Arial, sans-serif" font-size="24" font-weight="700" fill="#e9f4ee">!tw1</text>
      <rect x="210" y="0" width="185" height="54" rx="12" fill="#10231f"/>
      <text x="234" y="36" font-family="Inter, Arial, sans-serif" font-size="24" font-weight="700" fill="#e9f4ee">!tw2</text>
      <rect x="420" y="0" width="270" height="54" rx="12" fill="#0dbd8b"/>
      <text x="444" y="36" font-family="Inter, Arial, sans-serif" font-size="24" font-weight="800" fill="#10231f">stream radio</text>
    </g>
  </g>
  <g transform="translate(205 418)" fill="none" stroke="#10231f" stroke-width="10" stroke-linecap="round" stroke-linejoin="round">
    <path d="M0 24c65-58 130 58 195 0s130 58 195 0 130 58 195 0 130 58 195 0"/>
  </g>
</svg>
