<svg xmlns="http://www.w3.org/2000/svg" width="1200" height="630" viewBox="0 0 1200 630" role="img" aria-labelledby="title desc">
  <title id="title">Matrix public 443 Caddy full stack</title>
  <desc id="desc">A production topology diagram for Matrix Synapse, Caddy, LiveKit, coturn, Element and Synapse Admin.</desc>
  <defs>
    <linearGradient id="bg" x1="0" x2="1" y1="0" y2="1">
      <stop offset="0" stop-color="#10233f"/>
      <stop offset="0.52" stop-color="#163b35"/>
      <stop offset="1" stop-color="#2b2a44"/>
    </linearGradient>
    <filter id="shadow" x="-20%" y="-20%" width="140%" height="140%">
      <feDropShadow dx="0" dy="16" stdDeviation="18" flood-color="#06101c" flood-opacity="0.36"/>
    </filter>
  </defs>
  <rect width="1200" height="630" fill="url(#bg)"/>
  <g fill="none" stroke="#91d7ff" stroke-width="3" opacity="0.25">
    <path d="M96 144h206c68 0 88 52 154 52h172"/>
    <path d="M918 132h-142c-54 0-88 46-140 46H502"/>
    <path d="M108 498h196c64 0 92-52 160-52h180"/>
    <path d="M930 520h-186c-70 0-86-60-160-60H456"/>
  </g>
  <text x="80" y="90" fill="#f5fbff" font-family="Inter, Arial, sans-serif" font-size="48" font-weight="700">Matrix public 443 full stack</text>
  <text x="82" y="126" fill="#c7d9e7" font-family="Inter, Arial, sans-serif" font-size="22">Alpine · Docker Compose · Caddy · Synapse · LiveKit · coturn</text>
  <g filter="url(#shadow)">
    <rect x="80" y="180" width="260" height="270" rx="18" fill="#f7fbff"/>
    <text x="112" y="232" fill="#10233f" font-family="Inter, Arial, sans-serif" font-size="28" font-weight="700">Clients</text>
    <text x="112" y="275" fill="#415568" font-family="Inter, Arial, sans-serif" font-size="20">Element Web</text>
    <text x="112" y="310" fill="#415568" font-family="Inter, Arial, sans-serif" font-size="20">Element Call</text>
    <text x="112" y="345" fill="#415568" font-family="Inter, Arial, sans-serif" font-size="20">Synapse Admin</text>
    <text x="112" y="390" fill="#1b6b6a" font-family="Inter, Arial, sans-serif" font-size="18" font-weight="700">HTTPS / WSS :443</text>
  </g>
  <g filter="url(#shadow)">
    <rect x="470" y="158" width="270" height="315" rx="18" fill="#ffffff"/>
    <text x="512" y="214" fill="#10233f" font-family="Inter, Arial, sans-serif" font-size="34" font-weight="800">Caddy</text>
    <text x="512" y="253" fill="#415568" font-family="Inter, Arial, sans-serif" font-size="19">matrix.jgaga.tk</text>
    <text x="512" y="284" fill="#415568" font-family="Inter, Arial, sans-serif" font-size="19">element.jgaga.tk</text>
    <text x="512" y="315" fill="#415568" font-family="Inter, Arial, sans-serif" font-size="19">livekit.jgaga.tk</text>
    <text x="512" y="346" fill="#415568" font-family="Inter, Arial, sans-serif" font-size="19">matrix-jwt.jgaga.tk</text>
    <text x="512" y="390" fill="#7a4d13" font-family="Inter, Arial, sans-serif" font-size="18" font-weight="700">80 / 443 public edge</text>
  </g>
  <g filter="url(#shadow)">
    <rect x="850" y="150" width="270" height="340" rx="18" fill="#f7fbff"/>
    <text x="888" y="204" fill="#10233f" font-family="Inter, Arial, sans-serif" font-size="30" font-weight="800">Containers</text>
    <text x="888" y="250" fill="#415568" font-family="Inter, Arial, sans-serif" font-size="19">Synapse + Postgres</text>
    <text x="888" y="281" fill="#415568" font-family="Inter, Arial, sans-serif" font-size="19">LiveKit + JWT</text>
    <text x="888" y="312" fill="#415568" font-family="Inter, Arial, sans-serif" font-size="19">coturn direct</text>
    <text x="888" y="343" fill="#415568" font-family="Inter, Arial, sans-serif" font-size="19">ntfy / musicbot</text>
    <text x="888" y="374" fill="#415568" font-family="Inter, Arial, sans-serif" font-size="19">synapse-admin</text>
    <text x="888" y="424" fill="#1b6b6a" font-family="Inter, Arial, sans-serif" font-size="18" font-weight="700">/root/data/docker_data</text>
  </g>
  <g stroke="#f7fbff" stroke-width="7" stroke-linecap="round" fill="none">
    <path d="M354 314h100"/>
    <path d="M744 314h86"/>
  </g>
  <g fill="#f7fbff">
    <path d="M454 314l-18-11v22z"/>
    <path d="M830 314l-18-11v22z"/>
  </g>
  <g>
    <rect x="260" y="505" width="680" height="58" rx="12" fill="#0b1628" opacity="0.78"/>
    <text x="294" y="542" fill="#d8f2ff" font-family="Inter, Arial, sans-serif" font-size="22">root-only _secrets · dry-run media purge · deploy template without data</text>
  </g>
</svg>
