<svg xmlns="http://www.w3.org/2000/svg" width="1200" height="630" viewBox="0 0 1200 630" role="img" aria-labelledby="title desc">
  <title id="title">coturn Docker Compose matrix cover</title>
  <desc id="desc">A Docker and Matrix themed cover for coturn TURN server with ports 3478, 5349, relay UDP range, and matrix network.</desc>
  <defs>
    <linearGradient id="bg" x1="0" y1="0" x2="1" y2="1">
      <stop offset="0" stop-color="#111827"/>
      <stop offset="0.45" stop-color="#123536"/>
      <stop offset="1" stop-color="#243b72"/>
    </linearGradient>
    <linearGradient id="panel" x1="0" y1="0" x2="1" y2="1">
      <stop offset="0" stop-color="#f8fafc" stop-opacity="0.98"/>
      <stop offset="1" stop-color="#dcfce7" stop-opacity="0.9"/>
    </linearGradient>
    <filter id="shadow" x="-20%" y="-20%" width="140%" height="140%">
      <feDropShadow dx="0" dy="18" stdDeviation="20" flood-color="#000000" flood-opacity="0.28"/>
    </filter>
  </defs>

  <rect width="1200" height="630" fill="url(#bg)"/>
  <path d="M0 476 C152 392 270 512 430 430 C602 342 760 360 910 430 C1038 490 1124 448 1200 396 L1200 630 L0 630 Z" fill="#22c55e" opacity="0.16"/>
  <path d="M0 168 C140 92 286 148 430 84 C622 0 762 124 936 72 C1032 44 1112 42 1200 62 L1200 0 L0 0 Z" fill="#60a5fa" opacity="0.14"/>

  <g opacity="0.24" stroke="#d1fae5" stroke-width="3">
    <path d="M230 420 C344 300 450 528 560 408 C680 276 790 510 930 386"/>
    <path d="M560 408 L560 260"/>
    <path d="M420 334 L700 334"/>
    <circle cx="230" cy="420" r="8" fill="#d1fae5"/>
    <circle cx="560" cy="408" r="8" fill="#d1fae5"/>
    <circle cx="560" cy="260" r="8" fill="#d1fae5"/>
    <circle cx="930" cy="386" r="8" fill="#d1fae5"/>
  </g>

  <g filter="url(#shadow)">
    <rect x="88" y="92" width="1024" height="446" rx="34" fill="url(#panel)"/>
  </g>

  <g transform="translate(132 132)">
    <rect x="0" y="0" width="168" height="78" rx="22" fill="#0f766e"/>
    <text x="28" y="50" font-family="Menlo, Consolas, monospace" font-size="30" fill="#ffffff" font-weight="700">TURN</text>
    <text x="106" y="50" font-family="Inter, Arial, sans-serif" font-size="24" fill="#bbf7d0" font-weight="700">srv</text>

    <text x="0" y="156" font-family="Inter, Arial, sans-serif" font-size="68" fill="#102033" font-weight="800">coturn</text>
    <text x="0" y="214" font-family="Inter, Arial, sans-serif" font-size="42" fill="#155e75" font-weight="700">TURN for Matrix calls</text>
    <text x="0" y="270" font-family="Inter, Arial, sans-serif" font-size="26" fill="#3f5865">Docker Compose, shared secret, matrix network</text>
  </g>

  <g transform="translate(710 130)">
    <rect x="0" y="0" width="322" height="344" rx="28" fill="#0f172a"/>
    <rect x="34" y="34" width="254" height="62" rx="16" fill="#14532d"/>
    <text x="58" y="73" font-family="Menlo, Consolas, monospace" font-size="23" fill="#dcfce7">3478 tcp/udp</text>
    <rect x="34" y="118" width="254" height="62" rx="16" fill="#164e63"/>
    <text x="58" y="157" font-family="Menlo, Consolas, monospace" font-size="23" fill="#cffafe">5349 tls</text>
    <rect x="34" y="202" width="254" height="62" rx="16" fill="#1d4ed8"/>
    <text x="58" y="241" font-family="Menlo, Consolas, monospace" font-size="23" fill="#dbeafe">64000-65535</text>
    <path d="M161 282 v28" stroke="#86efac" stroke-width="5" stroke-linecap="round"/>
    <path d="M143 297 l18 18 l18 -18" fill="none" stroke="#86efac" stroke-width="5" stroke-linecap="round" stroke-linejoin="round"/>
  </g>

  <g transform="translate(160 470)">
    <rect x="0" y="0" width="164" height="44" rx="22" fill="#0f766e"/>
    <text x="34" y="29" font-family="Inter, Arial, sans-serif" font-size="19" fill="#ffffff" font-weight="700">matrix net</text>
    <rect x="190" y="0" width="170" height="44" rx="22" fill="#0369a1"/>
    <text x="224" y="29" font-family="Inter, Arial, sans-serif" font-size="19" fill="#ffffff" font-weight="700">Synapse</text>
    <rect x="386" y="0" width="198" height="44" rx="22" fill="#1e40af"/>
    <text x="420" y="29" font-family="Inter, Arial, sans-serif" font-size="19" fill="#ffffff" font-weight="700">shared secret</text>
  </g>
</svg>
