<svg xmlns="http://www.w3.org/2000/svg" width="360" height="78" viewBox="0 0 360 78" role="img" aria-labelledby="logo-title">
  <title id="logo-title">电脑自习室</title>
  <defs>
    <linearGradient id="screen" x1="10" y1="8" x2="58" y2="60" gradientUnits="userSpaceOnUse">
      <stop stop-color="#ffffff"/>
      <stop offset="0.55" stop-color="#f6fafc"/>
      <stop offset="1" stop-color="#eef5f7"/>
    </linearGradient>
    <linearGradient id="accent" x1="12" y1="12" x2="61" y2="59" gradientUnits="userSpaceOnUse">
      <stop stop-color="#d43f2f"/>
      <stop offset="1" stop-color="#1f8a70"/>
    </linearGradient>
    <filter id="soft-shadow" x="-20%" y="-25%" width="140%" height="150%" color-interpolation-filters="sRGB">
      <feDropShadow dx="0" dy="9" stdDeviation="8" flood-color="#263446" flood-opacity="0.13"/>
    </filter>
  </defs>

  <g filter="url(#soft-shadow)">
    <rect x="8" y="9" width="58" height="50" rx="13" fill="url(#screen)" stroke="#d9e2ea" stroke-width="1.4"/>
    <path d="M22 24.5h16.5c7.7 0 13.4 5.4 13.4 13.1S46.2 50.5 38.5 50.5H22V24.5Z" fill="#263446"/>
    <path d="M28.7 31.2h9.1c3.9 0 6.7 2.6 6.7 6.4 0 3.9-2.8 6.5-6.7 6.5h-9.1V31.2Z" fill="#ffffff"/>
    <path d="M18 18.5h27.5" stroke="#d43f2f" stroke-width="3" stroke-linecap="round"/>
    <path d="M50 18.5h3.5" stroke="#1f8a70" stroke-width="3" stroke-linecap="round"/>
  </g>

  <path d="M80 18h2.5c10 0 17.8 7.8 17.8 18v4c0 10.2-7.8 18.2-17.8 18.2H80V18Z" fill="none" stroke="#1f5f99" stroke-width="2.2" stroke-linecap="round"/>
  <text x="113" y="47" fill="#263446" font-family="-apple-system, BlinkMacSystemFont, 'Segoe UI', 'PingFang SC', 'Microsoft YaHei', sans-serif" font-size="31" font-weight="850" letter-spacing="0">电脑自习室</text>
  <path d="M113 58h142" stroke="#d43f2f" stroke-width="3" stroke-linecap="round"/>
  <path d="M266 58h31" stroke="#1f8a70" stroke-width="3" stroke-linecap="round"/>
</svg>
