<svg xmlns="http://www.w3.org/2000/svg" width="1200" height="630" viewBox="0 0 1200 630" role="img" aria-labelledby="title desc">
  <title id="title">RouterOS sing-box Riot routing cover</title>
  <desc id="desc">A network diagram themed cover for League of Legends NA routing with RouterOS and sing-box.</desc>
  <defs>
    <linearGradient id="bg" x1="0" y1="0" x2="1" y2="1">
      <stop offset="0" stop-color="#101827"/>
      <stop offset="0.52" stop-color="#123047"/>
      <stop offset="1" stop-color="#0b1f28"/>
    </linearGradient>
    <linearGradient id="line" x1="0" y1="0" x2="1" y2="0">
      <stop offset="0" stop-color="#4fd1c5"/>
      <stop offset="1" stop-color="#f6c65b"/>
    </linearGradient>
  </defs>
  <rect width="1200" height="630" fill="url(#bg)"/>
  <g opacity=".18">
    <path d="M80 95h1040M80 190h1040M80 285h1040M80 380h1040M80 475h1040" stroke="#d9edf7" stroke-width="1"/>
    <path d="M170 60v510M330 60v510M490 60v510M650 60v510M810 60v510M970 60v510" stroke="#d9edf7" stroke-width="1"/>
  </g>
  <g transform="translate(92 116)">
    <rect x="0" y="0" width="1016" height="398" rx="8" fill="#ffffff" opacity=".06" stroke="#dbeafe" stroke-opacity=".25"/>
    <g transform="translate(74 108)">
      <rect width="190" height="112" rx="8" fill="#172033" stroke="#5eead4" stroke-width="2"/>
      <text x="95" y="48" text-anchor="middle" font-family="ui-monospace, SFMono-Regular, Menlo, monospace" font-size="24" fill="#e6fffb">Client</text>
      <text x="95" y="78" text-anchor="middle" font-family="ui-monospace, SFMono-Regular, Menlo, monospace" font-size="15" fill="#9fb6c4">LoL NA</text>
    </g>
    <g transform="translate(414 108)">
      <rect width="190" height="112" rx="8" fill="#172033" stroke="#f6c65b" stroke-width="2"/>
      <text x="95" y="43" text-anchor="middle" font-family="ui-monospace, SFMono-Regular, Menlo, monospace" font-size="23" fill="#fff7d6">sing-box</text>
      <text x="95" y="75" text-anchor="middle" font-family="ui-monospace, SFMono-Regular, Menlo, monospace" font-size="15" fill="#9fb6c4">Riot direct</text>
    </g>
    <g transform="translate(754 108)">
      <rect width="190" height="112" rx="8" fill="#172033" stroke="#93c5fd" stroke-width="2"/>
      <text x="95" y="43" text-anchor="middle" font-family="ui-monospace, SFMono-Regular, Menlo, monospace" font-size="23" fill="#dbeafe">RouterOS</text>
      <text x="95" y="75" text-anchor="middle" font-family="ui-monospace, SFMono-Regular, Menlo, monospace" font-size="15" fill="#9fb6c4">No invalid drop</text>
    </g>
    <path d="M264 164H414" stroke="url(#line)" stroke-width="8" stroke-linecap="round"/>
    <path d="M604 164H754" stroke="url(#line)" stroke-width="8" stroke-linecap="round"/>
    <path d="M944 164c48 0 78 28 106 64" stroke="#5eead4" stroke-width="8" stroke-linecap="round" fill="none"/>
    <circle cx="1058" cy="240" r="34" fill="#0f766e" stroke="#99f6e4" stroke-width="3"/>
    <text x="1058" y="247" text-anchor="middle" font-family="ui-monospace, SFMono-Regular, Menlo, monospace" font-size="20" fill="#ecfeff">NA</text>
    <g transform="translate(166 286)">
      <rect width="684" height="58" rx="6" fill="#0b1220" stroke="#334155"/>
      <text x="28" y="37" font-family="ui-monospace, SFMono-Regular, Menlo, monospace" font-size="22" fill="#e2e8f0">geosite-riot -> real DNS -> direct</text>
    </g>
  </g>
  <text x="86" y="86" font-family="Inter, ui-sans-serif, system-ui, sans-serif" font-size="46" font-weight="800" fill="#f8fafc">League NA Routing</text>
  <text x="88" y="556" font-family="Inter, ui-sans-serif, system-ui, sans-serif" font-size="26" fill="#cbd5e1">RouterOS + sing-box bypass routing for Riot traffic</text>
</svg>
