<svg xmlns="http://www.w3.org/2000/svg" viewBox="0 0 1200 675" role="img" aria-labelledby="title desc">
  <title id="title">FreeBSD 15 Minimal Tuning</title>
  <desc id="desc">FreeBSD 15 minimal system tuning cover</desc>
  <rect width="1200" height="675" fill="#101827"/>
  <circle cx="1035" cy="115" r="190" fill="#ef4444" opacity=".16"/>
  <circle cx="175" cy="560" r="230" fill="#22c55e" opacity=".15"/>
  <rect x="95" y="130" width="470" height="320" rx="24" fill="#172033" stroke="#334155" stroke-width="5"/>
  <rect x="140" y="180" width="335" height="24" rx="12" fill="#ef4444"/>
  <rect x="140" y="240" width="365" height="22" rx="11" fill="#94a3b8"/>
  <rect x="140" y="296" width="275" height="22" rx="11" fill="#64748b"/>
  <rect x="140" y="352" width="325" height="22" rx="11" fill="#64748b"/>
  <rect x="650" y="150" width="390" height="300" rx="22" fill="#0f172a" stroke="#334155" stroke-width="5"/>
  <path d="M715 235h250M715 305h205M715 375h270" stroke="#38bdf8" stroke-width="26" stroke-linecap="round"/>
  <circle cx="670" cy="235" r="16" fill="#22c55e"/>
  <circle cx="670" cy="305" r="16" fill="#f59e0b"/>
  <circle cx="670" cy="375" r="16" fill="#ef4444"/>
  <text x="95" y="545" fill="#fff" font-family="Arial, sans-serif" font-size="62" font-weight="800">FreeBSD 15 精简调优</text>
  <text x="98" y="607" fill="#86efac" font-family="Arial, sans-serif" font-size="34" font-weight="700">用户 / TTY / pkg 缓存 / tmpfs / Swap</text>
</svg>
