<svg xmlns="http://www.w3.org/2000/svg" viewBox="0 0 1200 675" role="img" aria-labelledby="title desc">
  <title id="title">FreeBSD 15 Minimal Install</title>
  <desc id="desc">FreeBSD 15 minimal installation guide cover</desc>
  <rect width="1200" height="675" fill="#101827"/>
  <circle cx="1010" cy="115" r="190" fill="#dc2626" opacity=".16"/>
  <circle cx="165" cy="555" r="235" fill="#38bdf8" opacity=".16"/>
  <rect x="100" y="125" width="465" height="310" rx="24" fill="#172033" stroke="#334155" stroke-width="5"/>
  <rect x="145" y="178" width="330" height="26" rx="13" fill="#e11d48"/>
  <rect x="145" y="242" width="360" height="22" rx="11" fill="#94a3b8"/>
  <rect x="145" y="300" width="285" height="22" rx="11" fill="#64748b"/>
  <rect x="145" y="358" width="330" height="22" rx="11" fill="#64748b"/>
  <path d="M705 425h260c68 0 120-52 120-120s-52-120-120-120H705c-68 0-120 52-120 120s52 120 120 120Z" fill="#0f172a" stroke="#e11d48" stroke-width="8"/>
  <circle cx="725" cy="305" r="45" fill="#e11d48"/>
  <circle cx="835" cy="305" r="45" fill="#38bdf8"/>
  <circle cx="945" cy="305" r="45" fill="#22c55e"/>
  <text x="95" y="545" fill="#fff" font-family="Arial, sans-serif" font-size="68" font-weight="800">FreeBSD 15</text>
  <text x="98" y="607" fill="#fca5a5" font-family="Arial, sans-serif" font-size="34" font-weight="700">最小化安装 / VPS / UFS / 基础网络</text>
</svg>
