<svg xmlns="http://www.w3.org/2000/svg" viewBox="0 0 1200 675" role="img" aria-labelledby="title desc">
  <title id="title">RouterOS 初始化及基础配置</title>
  <desc id="desc">软路由教程封面插图</desc>
  <rect width="1200" height="675" fill="#101827"/>
  <circle cx="1040" cy="100" r="180" fill="#16a34a" opacity=".18"/>
  <circle cx="170" cy="560" r="230" fill="#0ea5e9" opacity=".18"/>
  <rect x="95" y="130" width="440" height="290" rx="28" fill="#172033" stroke="#334155" stroke-width="4"/>
  <rect x="135" y="175" width="360" height="24" rx="12" fill="#22c55e"/>
  <rect x="135" y="235" width="280" height="22" rx="11" fill="#64748b"/>
  <rect x="135" y="290" width="330" height="22" rx="11" fill="#64748b"/>
  <rect x="135" y="345" width="210" height="22" rx="11" fill="#64748b"/>
  <path d="M705 435h230c70 0 120-50 120-118s-50-118-120-118H705c-70 0-120 50-120 118s50 118 120 118Z" fill="#0f172a" stroke="#38bdf8" stroke-width="8"/>
  <circle cx="710" cy="317" r="48" fill="#38bdf8"/>
  <circle cx="820" cy="317" r="48" fill="#22c55e"/>
  <circle cx="930" cy="317" r="48" fill="#f97316"/>
  <text x="95" y="535" fill="#fff" font-family="Arial, sans-serif" font-size="62" font-weight="800">RouterOS 初始化</text>
  <text x="98" y="595" fill="#f97316" font-family="Arial, sans-serif" font-size="34" font-weight="700">基础配置 / 安全入口 / 管理习惯</text>
</svg>
