<svg xmlns="http://www.w3.org/2000/svg" viewBox="0 0 1200 630" role="img" aria-labelledby="title desc">
  <title id="title">Hermes Telegram Quiet Mode Restore</title>
  <desc id="desc">A quiet Telegram gateway configuration diagram for Hermes Agent profiles.</desc>
  <defs>
    <linearGradient id="bg" x1="0" y1="0" x2="1" y2="1">
      <stop offset="0%" stop-color="#0f172a"/>
      <stop offset="48%" stop-color="#12324a"/>
      <stop offset="100%" stop-color="#0b3b3a"/>
    </linearGradient>
    <linearGradient id="telegram" x1="0" y1="0" x2="1" y2="1">
      <stop offset="0%" stop-color="#49b7f5"/>
      <stop offset="100%" stop-color="#1d7fd1"/>
    </linearGradient>
    <linearGradient id="answer" x1="0" y1="0" x2="1" y2="1">
      <stop offset="0%" stop-color="#a7f3d0"/>
      <stop offset="100%" stop-color="#22c55e"/>
    </linearGradient>
    <filter id="shadow" x="-20%" y="-20%" width="140%" height="140%">
      <feDropShadow dx="0" dy="18" stdDeviation="22" flood-color="#020617" flood-opacity="0.35"/>
    </filter>
  </defs>

  <rect width="1200" height="630" fill="url(#bg)"/>
  <path d="M0 496 C180 430 285 520 450 470 C642 411 706 310 906 346 C1032 369 1108 436 1200 388 L1200 630 L0 630 Z" fill="#0f766e" opacity="0.22"/>
  <path d="M0 93 C205 135 322 72 492 111 C676 153 726 247 905 218 C1035 197 1116 124 1200 151 L1200 0 L0 0 Z" fill="#38bdf8" opacity="0.1"/>

  <g filter="url(#shadow)">
    <rect x="86" y="92" width="1028" height="446" rx="34" fill="#f8fafc"/>
    <rect x="86" y="92" width="1028" height="74" rx="34" fill="#e2e8f0"/>
    <path d="M86 132 C86 110 104 92 126 92 L1074 92 C1096 92 1114 110 1114 132 L1114 166 L86 166 Z" fill="#e2e8f0"/>
    <circle cx="132" cy="130" r="11" fill="#ef4444"/>
    <circle cx="168" cy="130" r="11" fill="#f59e0b"/>
    <circle cx="204" cy="130" r="11" fill="#22c55e"/>
  </g>

  <g transform="translate(132 205)">
    <rect x="0" y="0" width="276" height="246" rx="22" fill="#eff6ff" stroke="#bfdbfe" stroke-width="2"/>
    <circle cx="74" cy="76" r="46" fill="url(#telegram)"/>
    <path d="M48 74 L104 51 C111 48 116 55 111 61 L92 112 C89 119 80 119 77 112 L68 92 L51 86 C44 84 42 77 48 74 Z" fill="#ffffff"/>
    <text x="138" y="68" fill="#0f172a" font-family="Arial, sans-serif" font-size="26" font-weight="700">Telegram</text>
    <text x="138" y="101" fill="#475569" font-family="Arial, sans-serif" font-size="18">clean chat entry</text>
    <rect x="36" y="150" width="204" height="16" rx="8" fill="#93c5fd"/>
    <rect x="36" y="184" width="144" height="16" rx="8" fill="#bfdbfe"/>
  </g>

  <g transform="translate(462 205)">
    <rect x="0" y="0" width="276" height="246" rx="22" fill="#f8fafc" stroke="#cbd5e1" stroke-width="2"/>
    <rect x="42" y="42" width="192" height="54" rx="16" fill="#e0f2fe"/>
    <text x="138" y="77" text-anchor="middle" fill="#0f172a" font-family="Arial, sans-serif" font-size="25" font-weight="700">Hermes</text>
    <rect x="46" y="126" width="184" height="28" rx="14" fill="#dcfce7"/>
    <text x="138" y="146" text-anchor="middle" fill="#166534" font-family="Arial, sans-serif" font-size="16" font-weight="700">profile: default</text>
    <rect x="46" y="170" width="184" height="28" rx="14" fill="#fef3c7"/>
    <text x="138" y="190" text-anchor="middle" fill="#92400e" font-family="Arial, sans-serif" font-size="16" font-weight="700">profile: dev</text>
  </g>

  <g transform="translate(792 205)">
    <rect x="0" y="0" width="276" height="246" rx="22" fill="#ecfdf5" stroke="#bbf7d0" stroke-width="2"/>
    <circle cx="72" cy="77" r="44" fill="url(#answer)"/>
    <path d="M53 79 L67 94 L97 59" fill="none" stroke="#ffffff" stroke-width="11" stroke-linecap="round" stroke-linejoin="round"/>
    <text x="138" y="69" fill="#0f172a" font-family="Arial, sans-serif" font-size="26" font-weight="700">Final answer</text>
    <text x="138" y="101" fill="#475569" font-family="Arial, sans-serif" font-size="18">only what matters</text>
    <rect x="36" y="149" width="204" height="16" rx="8" fill="#86efac"/>
    <rect x="36" y="184" width="116" height="16" rx="8" fill="#bbf7d0"/>
  </g>

  <path d="M414 328 L450 328" stroke="#64748b" stroke-width="5" stroke-linecap="round"/>
  <path d="M740 328 L776 328" stroke="#64748b" stroke-width="5" stroke-linecap="round"/>
  <path d="M446 328 L434 316 M446 328 L434 340" stroke="#64748b" stroke-width="5" stroke-linecap="round"/>
  <path d="M772 328 L760 316 M772 328 L760 340" stroke="#64748b" stroke-width="5" stroke-linecap="round"/>

  <g transform="translate(290 480)">
    <rect x="0" y="0" width="620" height="34" rx="17" fill="#0f172a" opacity="0.86"/>
    <text x="310" y="23" text-anchor="middle" fill="#cbd5e1" font-family="Arial, sans-serif" font-size="16" font-weight="700">tool progress · memory notices · lifecycle messages hidden</text>
  </g>

  <text x="600" y="585" text-anchor="middle" fill="#e2e8f0" font-family="Arial, sans-serif" font-size="44" font-weight="800">Hermes Telegram Quiet Mode</text>
</svg>
