<svg xmlns="http://www.w3.org/2000/svg" width="1600" height="900" viewBox="0 0 1600 900" role="img" aria-labelledby="title desc">
  <title id="title">Element Web behind Nginx Proxy Manager</title>
  <desc id="desc">A diagram style cover showing Element Web, NPM HTTPS, and Synapse.</desc>
  <defs>
    <linearGradient id="bg" x1="0" y1="0" x2="1" y2="1">
      <stop offset="0%" stop-color="#0b1f25"/>
      <stop offset="52%" stop-color="#12343b"/>
      <stop offset="100%" stop-color="#203a43"/>
    </linearGradient>
    <linearGradient id="panel" x1="0" y1="0" x2="1" y2="1">
      <stop offset="0%" stop-color="#eef7f4"/>
      <stop offset="100%" stop-color="#d7ece7"/>
    </linearGradient>
    <filter id="shadow" x="-20%" y="-20%" width="140%" height="140%">
      <feDropShadow dx="0" dy="18" stdDeviation="24" flood-color="#061114" flood-opacity="0.38"/>
    </filter>
  </defs>
  <rect width="1600" height="900" fill="url(#bg)"/>
  <path d="M0 650 C240 560 350 720 560 640 C760 560 910 690 1110 610 C1320 526 1420 590 1600 520 L1600 900 L0 900 Z" fill="#4cc3a5" opacity="0.2"/>
  <path d="M0 730 C260 650 410 790 620 710 C820 632 1040 780 1240 680 C1400 600 1490 650 1600 610 L1600 900 L0 900 Z" fill="#7dd3c7" opacity="0.23"/>

  <g transform="translate(110 110)">
    <text x="0" y="0" fill="#dffcf4" font-family="Inter, Arial, sans-serif" font-size="64" font-weight="800">Element Web + NPM</text>
    <text x="0" y="72" fill="#9fd1c7" font-family="Inter, Arial, sans-serif" font-size="34" font-weight="600">Matrix 管理登录客户端 / 内网 HTTPS 反代</text>
  </g>

  <g filter="url(#shadow)">
    <rect x="120" y="270" width="360" height="190" rx="22" fill="url(#panel)"/>
    <rect x="155" y="318" width="76" height="76" rx="20" fill="#4cc3a5"/>
    <circle cx="193" cy="356" r="22" fill="none" stroke="#eafff9" stroke-width="10"/>
    <text x="255" y="348" fill="#12343b" font-family="Inter, Arial, sans-serif" font-size="38" font-weight="800">Element Web</text>
    <text x="255" y="395" fill="#3d6770" font-family="Inter, Arial, sans-serif" font-size="24" font-weight="600">10.20.20.8:8181</text>
  </g>

  <g filter="url(#shadow)">
    <rect x="620" y="250" width="360" height="230" rx="22" fill="#f3f6f8"/>
    <rect x="655" y="306" width="76" height="76" rx="18" fill="#2f7ee6"/>
    <path d="M686 345 h16 m-8 -8 v16" stroke="#ffffff" stroke-width="10" stroke-linecap="round"/>
    <text x="755" y="332" fill="#14212b" font-family="Inter, Arial, sans-serif" font-size="38" font-weight="800">NPM</text>
    <text x="755" y="379" fill="#526476" font-family="Inter, Arial, sans-serif" font-size="24" font-weight="600">HTTPS :12335</text>
    <text x="655" y="430" fill="#526476" font-family="SFMono-Regular, Menlo, Consolas, monospace" font-size="24">element.666666.xyz</text>
  </g>

  <g filter="url(#shadow)">
    <rect x="1120" y="270" width="360" height="190" rx="22" fill="url(#panel)"/>
    <rect x="1155" y="318" width="76" height="76" rx="20" fill="#244b5a"/>
    <path d="M1178 357 h30 m-15 -15 v30" stroke="#b8f3e4" stroke-width="9" stroke-linecap="round"/>
    <text x="1255" y="348" fill="#12343b" font-family="Inter, Arial, sans-serif" font-size="38" font-weight="800">Synapse</text>
    <text x="1255" y="395" fill="#3d6770" font-family="Inter, Arial, sans-serif" font-size="24" font-weight="600">matrix:12335</text>
  </g>

  <g fill="none" stroke="#4cc3a5" stroke-width="14" stroke-linecap="round" stroke-linejoin="round">
    <path d="M505 365 H590"/>
    <path d="M570 335 L610 365 L570 395"/>
    <path d="M1005 365 H1090"/>
    <path d="M1070 335 L1110 365 L1070 395"/>
  </g>

  <g transform="translate(300 605)">
    <rect x="0" y="0" width="1000" height="110" rx="18" fill="#082027" opacity="0.85"/>
    <text x="50" y="68" fill="#dffcf4" font-family="SFMono-Regular, Menlo, Consolas, monospace" font-size="34">https://element.666666.xyz:12335/</text>
    <text x="675" y="68" fill="#7dd3c7" font-family="Inter, Arial, sans-serif" font-size="30" font-weight="700">安全上下文</text>
  </g>
</svg>
