<svg xmlns="http://www.w3.org/2000/svg" width="1200" height="630" viewBox="0 0 1200 630" role="img" aria-labelledby="title desc">
  <title id="title">Hermes Agent deployment guide cover</title>
  <desc id="desc">A technical cover showing an AI agent core connected to memory, skills, model routing, gateway, dashboard, and Docker deployment.</desc>
  <defs>
    <linearGradient id="bg" x1="0" y1="0" x2="1" y2="1">
      <stop offset="0" stop-color="#10202f"/>
      <stop offset="0.55" stop-color="#17283c"/>
      <stop offset="1" stop-color="#123830"/>
    </linearGradient>
    <linearGradient id="panel" x1="0" y1="0" x2="1" y2="1">
      <stop offset="0" stop-color="#26384e"/>
      <stop offset="1" stop-color="#182432"/>
    </linearGradient>
    <linearGradient id="accent" x1="0" y1="0" x2="1" y2="1">
      <stop offset="0" stop-color="#56d6a7"/>
      <stop offset="1" stop-color="#65a7ff"/>
    </linearGradient>
    <filter id="shadow" x="-20%" y="-20%" width="140%" height="140%">
      <feDropShadow dx="0" dy="16" stdDeviation="18" flood-color="#000" flood-opacity="0.28"/>
    </filter>
  </defs>
  <rect width="1200" height="630" fill="url(#bg)"/>
  <path d="M0 486 C180 420 315 548 493 490 C690 426 789 341 1200 408 L1200 630 L0 630 Z" fill="#0f191f" opacity="0.58"/>
  <g opacity="0.22" stroke="#78d8c5" stroke-width="2" fill="none">
    <path d="M89 96 H301 V189 H89 Z"/>
    <path d="M899 96 H1111 V189 H899 Z"/>
    <path d="M920 452 H1104 V536 H920 Z"/>
    <path d="M90 450 H286 V534 H90 Z"/>
  </g>
  <g filter="url(#shadow)">
    <rect x="395" y="128" width="410" height="360" rx="24" fill="url(#panel)" stroke="#5bd9ba" stroke-opacity="0.42"/>
    <circle cx="600" cy="267" r="86" fill="#101b25" stroke="url(#accent)" stroke-width="5"/>
    <path d="M556 269 C556 240 575 219 601 219 C627 219 646 240 646 269 C646 299 627 318 601 318 C575 318 556 299 556 269 Z" fill="none" stroke="#e8fff8" stroke-width="9"/>
    <path d="M522 364 H678" stroke="#56d6a7" stroke-width="10" stroke-linecap="round"/>
    <path d="M552 398 H648" stroke="#65a7ff" stroke-width="8" stroke-linecap="round"/>
  </g>
  <g font-family="Inter, Arial, sans-serif" fill="#f4fbff">
    <text x="72" y="92" font-size="26" font-weight="700">Hermes Agent</text>
    <text x="72" y="132" font-size="18" fill="#aac7d7">Deployment Guide</text>
    <text x="72" y="586" font-size="22" fill="#d5f9ef">AI Agent · Gateway · Docker · Dashboard</text>
  </g>
  <g stroke="#80e1cb" stroke-width="3" stroke-linecap="round" opacity="0.72">
    <path d="M395 214 C330 174 275 162 216 162"/>
    <path d="M805 214 C870 174 925 162 984 162"/>
    <path d="M395 399 C329 442 276 473 206 492"/>
    <path d="M805 399 C877 444 927 482 1004 492"/>
  </g>
  <g font-family="Inter, Arial, sans-serif" font-size="22" font-weight="700" fill="#eef8ff">
    <rect x="88" y="126" width="235" height="82" rx="12" fill="#1a2b3a" stroke="#5bd9ba" stroke-opacity="0.45"/>
    <text x="126" y="176">Memory</text>
    <rect x="877" y="126" width="235" height="82" rx="12" fill="#1a2b3a" stroke="#5bd9ba" stroke-opacity="0.45"/>
    <text x="917" y="176">Model Router</text>
    <rect x="88" y="444" width="235" height="82" rx="12" fill="#1a2b3a" stroke="#5bd9ba" stroke-opacity="0.45"/>
    <text x="128" y="494">Gateway</text>
    <rect x="877" y="444" width="235" height="82" rx="12" fill="#1a2b3a" stroke="#5bd9ba" stroke-opacity="0.45"/>
    <text x="927" y="494">Docker</text>
  </g>
  <g fill="#56d6a7" opacity="0.82">
    <circle cx="206" cy="162" r="7"/>
    <circle cx="994" cy="162" r="7"/>
    <circle cx="206" cy="492" r="7"/>
    <circle cx="1004" cy="492" r="7"/>
  </g>
</svg>
